<svg xmlns="http://www.w3.org/2000/svg" width="512" height="512" enable-background="new 0 0 512 512" viewBox="0 0 512 512"><polygon fill="#EED3CA" points="35.817 191.735 35.817 360.199 451.176 360.199 451.176 108.874 35.817 108.874 35.817 166.93"/><polygon fill="#E59878" points="451.178 139.591 243.497 287.986 35.817 139.591 35.817 108.874 451.176 108.874 451.178 139.591"/><polygon fill="#E55C41" points="35.817 361.822 243.497 197.862 451.177 361.822 35.817 361.822"/><path fill="#EFB3A3" d="M451.178,108.867l-193.132,138c-8.703,6.218-20.395,6.218-29.098,0l-193.131-138H451.178L451.178,108.867
				z"/><rect width="97.675" height="10" x="194.356" y="324.497" fill="#FFF"/><g><path fill="#CE8D46" d="M454.541,328.843c0,29.49-23.91,53.41-53.41,53.41c-2.31,0-4.59-0.149-6.83-0.44
				c-20.38-2.59-37.16-16.68-43.67-35.55l-2.16-8.47c-0.5-2.91-0.75-5.9-0.75-8.95c0-27.18,20.301-49.62,46.58-52.97
				c2.23-0.29,4.51-0.439,6.83-0.439C430.631,275.434,454.541,299.343,454.541,328.843z"/><path fill="#EFB66A" d="M440.871,328.843c0,27.17-20.311,49.62-46.57,52.97c-20.38-2.59-37.16-16.68-43.67-35.55l-2.16-8.47
				c-0.5-2.91-0.75-5.9-0.75-8.95c0-27.18,20.301-49.62,46.58-52.97C420.561,279.223,440.871,301.663,440.871,328.843z"/><path fill="#FFF" d="M406.838,323.85h-0.092v-19.426h19.388v-10h-19.388v-18.992h-10v18.992h-0.219
				c-11.049,0-20.039,8.844-20.039,19.713s8.99,19.713,20.039,19.713h0.219v20.721H376.57v10h20.176v17.68h10v-17.68h0.092
				c11.415,0,20.701-9.135,20.701-20.361S418.253,323.85,406.838,323.85z M396.527,323.85c-5.535,0-10.039-4.357-10.039-9.713
				s4.504-9.713,10.039-9.713h0.219v19.426H396.527z M406.838,354.57h-0.092V333.85h0.092c5.9,0,10.701,4.646,10.701,10.359
				S412.738,354.57,406.838,354.57z"/></g><g><path d="M222.965,248.599c6.05,4.341,13.14,6.512,20.229,6.512c7.089,0,14.179-2.171,20.229-6.512l73.54-52.773l-5.83-8.125
			l-73.54,52.773c-8.613,6.181-20.187,6.181-28.799,0L50.756,112.717h384.871l-64.322,46.158l5.83,8.125l69.045-49.547v136.493h10
			V102.717H30.204V364.52h282.343v-10h-262.8l138.637-108.115l-6.149-7.886L40.204,349.28V117.453L222.965,248.599z"/><rect width="17.167" height="9.999" x="345.885" y="172.11" transform="rotate(-35.664 354.5 177.122)"/><path d="M343.983 370.197c-2.175-2.984-4.129-6.16-5.808-9.439l-8.902 4.555c1.916 3.744 4.146 7.369 6.629 10.775L343.983 370.197zM368.954 265.681l-4.561-8.899c-3.743 1.918-7.368 4.15-10.771 6.635l5.895 8.077C362.5 269.316 365.675 267.361 368.954 265.681zM466.398 376.028l-8.086-5.884c-2.172 2.984-4.596 5.821-7.206 8.432l7.071 7.07C461.156 382.668 463.922 379.432 466.398 376.028zM477.871 353.538l-9.512-3.087c-1.138 3.508-2.566 6.953-4.244 10.242l8.906 4.546C474.939 361.482 476.57 357.546 477.871 353.538zM330.463 328.617c0-3.682.285-7.376.848-10.982l-9.881-1.541c-.643 4.115-.967 8.328-.967 12.586l1.574.006L330.463 328.617zM333.923 350.525c-1.141-3.502-2.012-7.127-2.589-10.775l-9.877 1.564c.658 4.166 1.654 8.307 2.957 12.308L333.923 350.525zM437.786 400.491c3.747-1.915 7.372-4.143 10.778-6.622l-5.886-8.084c-2.984 2.172-6.161 4.125-9.443 5.802L437.786 400.491zM464.047 296.407l8.896-4.563c-1.918-3.742-4.152-7.365-6.64-10.769l-8.074 5.899C460.408 289.957 462.365 293.131 464.047 296.407zM481.796 328.617v-.164h-10v.164c0 3.705-.289 7.426-.859 11.057l9.879 1.553C481.466 337.083 481.796 332.841 481.796 328.617zM480.789 315.834c-.664-4.166-1.664-8.306-2.973-12.307l-9.504 3.108c1.145 3.501 2.02 7.125 2.601 10.771L480.789 315.834zM376.249 405.373l3.082-9.514c-3.509-1.137-6.956-2.563-10.245-4.24l-4.541 8.91C368.303 402.444 372.24 404.074 376.249 405.373zM433.104 265.579l4.531-8.914c-3.76-1.912-7.699-3.537-11.709-4.831l-3.07 9.517C426.363 262.483 429.813 263.906 433.104 265.579zM413.783 408.295c4.166-.656 8.307-1.648 12.311-2.951l-3.092-9.51c-3.504 1.14-7.129 2.008-10.776 2.584L413.783 408.295zM353.753 393.912l5.879-8.09c-2.983-2.168-5.822-4.592-8.437-7.201l-7.065 7.076C347.111 388.674 350.35 391.438 353.753 393.912zM401.006 247.95v10l.123-.001c3.669 0 7.352.283 10.945.842l1.535-9.881c-4.098-.637-8.295-.959-12.533-.959-.002 0-.005 0-.007 0H401.006zM442.564 271.365c2.987 2.166 5.828 4.586 8.443 7.191l7.059-7.082c-2.983-2.974-6.225-5.734-9.633-8.205L442.564 271.365zM324.36 303.778l9.515 3.077c1.135-3.509 2.559-6.957 4.234-10.247l-8.912-4.536C327.284 295.831 325.656 299.77 324.36 303.778zM379.185 261.422c3.501-1.143 7.126-2.016 10.772-2.596l-1.568-9.875c-4.165.661-8.307 1.659-12.308 2.965L379.185 261.422zM351.098 278.71l-7.08-7.062c-2.976 2.982-5.738 6.223-8.21 9.627l8.093 5.875C346.067 284.166 348.488 281.326 351.098 278.71zM390.109 398.43l-1.547 9.88c4.127.646 8.355.974 12.566.974h.041l-.041-10C397.434 399.283 393.727 398.996 390.109 398.43zM401.129 270.432c-32.207 0-58.409 26.201-58.409 58.408 0 3.281.274 6.573.817 9.785l9.859-1.664c-.449-2.664-.677-5.396-.677-8.121 0-26.692 21.716-48.408 48.409-48.408s48.409 21.716 48.409 48.408c0 26.693-21.716 48.41-48.409 48.41-20.65 0-39.047-13.107-45.775-32.615l-9.453 3.261c8.119 23.539 30.314 39.354 55.229 39.354 32.207 0 58.409-26.203 58.409-58.41S433.336 270.432 401.129 270.432z"/></g></svg>