<svg xmlns="http://www.w3.org/2000/svg" data-name="Layer 1" viewBox="0 0 512 512"><path fill="#e1e1e3" d="M7.5,7.5h497a0,0,0,0,1,0,0v302a30,30,0,0,1-30,30H37.5a30,30,0,0,1-30-30V7.5A0,0,0,0,1,7.5,7.5Z"/><path fill="#c8c5cc" d="M474.5,7.5v302a30,30,0,0,1-30,30h30a30,30,0,0,0,30-30V7.5Z"/><path fill="#fdd8ae" d="M382.92,480.79V451.63a76,76,0,0,1,7.07-32l16.35-35.19a76.08,76.08,0,0,0,6-45L398.4,259.5c-13.53-9.27-26-12.79-39.51-22.06-19.64,6.82-35.7,5.59-55.34,12.4a23.71,23.71,0,0,0-8.32,16.89,23,23,0,0,0,7,17.46l17.94,17.27"/><path fill="#fbbf7d" d="M358.89,237.44,300,257.89c-1.07.9-4.37-1.25-4.74,8.84a23,23,0,0,0,7,17.46l17.94,17.27Z"/><rect width="265" height="60" x="209.5" y="7.5" fill="#8b8893" rx="15"/><path fill="#3c3b41" d="M444.5,45h-205a7.5,7.5,0,0,1,0-15h205a7.5,7.5,0,0,1,0,15Z"/><path fill="#227fc0" d="M416,37.5v192a30,30,0,0,1-30,30H283a30,30,0,0,1-30-30V37.5Z"/><path fill="#3c3b41" d="M431,37.14V229.5a30,30,0,0,1-30,30H386V37.14Z"/><path fill="#2c2a2d" d="M416,37.5v192a30,30,0,0,1-30,30h15a30,30,0,0,0,30-30V37.5Z"/><path fill="#fecc30" d="M310.9,195.8a17.5,17.5,0,1,0-23.83,0,3,3,0,0,1,0,4.42,17.5,17.5,0,1,0,23.83,0A3,3,0,0,1,310.9,195.8Z"/><path fill="#f8be32" d="M310.93,200.22a3,3,0,0,1,0-4.42,17.47,17.47,0,0,0-17-29.53,17.6,17.6,0,0,1,12.36,15.25,17.4,17.4,0,0,1-5.53,14.28,3,3,0,0,0,0,4.42,17.47,17.47,0,0,1-6.84,29.51,16.88,16.88,0,0,0,4.09.74,17.48,17.48,0,0,0,12.92-30.25Z"/><path fill="#fff" d="M306.5,37.5v34a7.5,7.5,0,0,1-15,0v-34Z"/><path fill="#fdd8ae" d="M292,462.4V380.69a73.88,73.88,0,0,1,6.37-30l21.86-49.22L334,251.53a17.1,17.1,0,0,1,18.65-12.41h0a17.1,17.1,0,0,1,14.72,19.5l-6.76,44.79a38.1,38.1,0,0,0-.13,10.45L379,462.42"/><path fill="#fbbf7d" d="M352.35 258.61l-6.76 44.8h3.5A13.38 13.38 0 0 0 362.31 292l5-33a17.37 17.37 0 0 0-12.38-19.44 17.05 17.05 0 0 0-12 1.16A17.08 17.08 0 0 1 352.35 258.61zM383.4 259.5l13.91 79.88a76.08 76.08 0 0 1-6 45L375 419.6c-3.47 7.49-11.05 34.63-12 42.8l19.89 18.39V451.63a76 76 0 0 1 7.07-32l16.35-35.19a76.08 76.08 0 0 0 6-45L398.4 259.5z"/><path fill="#eb304a" d="M270.6,512l0-34.9a14.72,14.72,0,0,1,14.75-14.7l108.22,0a14.73,14.73,0,0,1,14.75,14.71l0,34.87"/><path fill="#e4222e" d="M408.3,477.13a14.73,14.73,0,0,0-14.75-14.71l-108.22,0h-.14l78.36,0a14.73,14.73,0,0,1,14.75,14.71l0,34.87h30Z"/><rect width="34.97" height="34.97" x="37.5" y="87.56" fill="#3c3b41" rx="4"/><rect width="34.97" height="34.97" x="102.47" y="87.56" fill="#3c3b41" rx="4"/><rect width="34.97" height="34.97" x="167.44" y="87.56" fill="#3c3b41" rx="4"/><rect width="34.97" height="34.97" x="37.5" y="152.53" fill="#3c3b41" rx="4"/><rect width="34.97" height="34.97" x="102.47" y="152.53" fill="#3c3b41" rx="4"/><rect width="34.97" height="34.97" x="167.44" y="152.53" fill="#3c3b41" rx="4"/><rect width="34.97" height="34.97" x="37.5" y="217.5" fill="#3c3b41" rx="4"/><rect width="34.97" height="34.97" x="102.47" y="217.5" fill="#3c3b41" rx="4"/><rect width="34.97" height="34.97" x="167.44" y="217.5" fill="#3c3b41" rx="4"/><path fill="#2c2a2d" d="M198.41 217.5H185.46a4 4 0 0 1 4 4v27a4 4 0 0 1-4 4h12.95a4 4 0 0 0 4-4v-27A4 4 0 0 0 198.41 217.5zM198.41 152.53H185.46a4 4 0 0 1 4 4v27a4 4 0 0 1-4 4h12.95a4 4 0 0 0 4-4v-27A4 4 0 0 0 198.41 152.53zM198.41 87.56H185.46a4 4 0 0 1 4 4v27a4 4 0 0 1-4 4h12.95a4 4 0 0 0 4-4v-27A4 4 0 0 0 198.41 87.56zM133.44 217.5h-13a4 4 0 0 1 4 4v27a4 4 0 0 1-4 4h13a4 4 0 0 0 4-4v-27A4 4 0 0 0 133.44 217.5zM133.44 152.53h-13a4 4 0 0 1 4 4v27a4 4 0 0 1-4 4h13a4 4 0 0 0 4-4v-27A4 4 0 0 0 133.44 152.53zM133.44 87.56h-13a4 4 0 0 1 4 4v27a4 4 0 0 1-4 4h13a4 4 0 0 0 4-4v-27A4 4 0 0 0 133.44 87.56zM68.47 217.5H55.52a4 4 0 0 1 4 4v27a4 4 0 0 1-4 4H68.47a4 4 0 0 0 4-4v-27A4 4 0 0 0 68.47 217.5zM68.47 152.53H55.52a4 4 0 0 1 4 4v27a4 4 0 0 1-4 4H68.47a4 4 0 0 0 4-4v-27A4 4 0 0 0 68.47 152.53zM68.47 87.56H55.52a4 4 0 0 1 4 4v27a4 4 0 0 1-4 4H68.47a4 4 0 0 0 4-4v-27A4 4 0 0 0 68.47 87.56z"/></svg>