<svg xmlns="http://www.w3.org/2000/svg" viewBox="0 0 500 500"><g id="freepik--background-complete--inject-91"><path d="M88.11,319.07A17.8,17.8,0,0,0,83,317.81a16,16,0,0,0-6,.66,15.12,15.12,0,0,0-6.59,4l-.43.46,0-.63a16.73,16.73,0,0,0-6.91-14.54c-3.89-2.79-8.61-4.22-12.73-3.58l-.48.08.23-.43a21.18,21.18,0,0,0,2.54-8.62,18.94,18.94,0,0,0-.79-7,22.82,22.82,0,0,0-2.79-5.63,1.92,1.92,0,0,1,.28.32c.16.23.44.55.74,1a18.07,18.07,0,0,1,2,4.21,18.89,18.89,0,0,1,.92,7.13,21.51,21.51,0,0,1-2.53,8.82l-.25-.35c4.29-.69,9.12.77,13.12,3.63a17.11,17.11,0,0,1,7.06,15l-.4-.17a15.37,15.37,0,0,1,6.81-4,16.08,16.08,0,0,1,6.11-.56,14.93,14.93,0,0,1,3.85.92c.43.16.74.34,1,.43A1.34,1.34,0,0,1,88.11,319.07Z" style="fill:#e0e0e0"></path><path d="M85.76,286.52c.06.13-10.24,5.32-23,11.6s-23.17,11.26-23.24,11.13,10.24-5.32,23-11.6S85.69,286.39,85.76,286.52Z" style="fill:#e0e0e0"></path><path d="M85.76,286.52c.13.06-4.06,9.9-9.36,22s-9.71,21.83-9.84,21.77,4.06-9.9,9.36-22S85.62,286.46,85.76,286.52Z" style="fill:#e0e0e0"></path><path d="M88.48,303.57a14.22,14.22,0,0,0-3-.91,10,10,0,0,0-3.52,0,9.37,9.37,0,0,0-4.08,1.85l-.38.3v-.49A8.88,8.88,0,0,0,67,295.62l-.34.07,0-.35a12.94,12.94,0,0,0-.42-5.45,13.76,13.76,0,0,0-1.87-3.9,18.49,18.49,0,0,0-2.61-2.88,3.77,3.77,0,0,1,.86.59,12.28,12.28,0,0,1,2,2.11,13.3,13.3,0,0,1,2,4,13.08,13.08,0,0,1,.51,5.64l-.29-.27a9.4,9.4,0,0,1,6.71,1.18A9.11,9.11,0,0,1,77,300a9.34,9.34,0,0,1,1,4.4l-.38-.19a9.76,9.76,0,0,1,4.31-1.86,10.1,10.1,0,0,1,3.63.05,8.78,8.78,0,0,1,2.21.76A3.6,3.6,0,0,1,88.48,303.57Z" style="fill:#e0e0e0"></path><path d="M88.43,291.22c0,.08-.68,0-1.76.17A6.23,6.23,0,0,0,83,293.61l-.31.4-.13-.49a6.05,6.05,0,0,0-1.16-2.25,6.34,6.34,0,0,0-1.91-1.59l-.25-.13.16-.23a6.07,6.07,0,0,0,1-4.21c-.14-1.11-.47-1.71-.4-1.74a3.36,3.36,0,0,1,.71,1.69,6.13,6.13,0,0,1-.93,4.55l-.09-.37A6.46,6.46,0,0,1,83,293.4l-.43-.09a6.12,6.12,0,0,1,4-2.23A3.45,3.45,0,0,1,88.43,291.22Z" style="fill:#e0e0e0"></path><path d="M427.08,107.5s-.07,0-.2,0l-.58-.2c-.51-.16-1.24-.47-2.23-.77a48.18,48.18,0,0,0-22.4-1.62c-1.31.18-2.64.51-4,.81s-2.74.74-4.13,1.26a46.31,46.31,0,0,0-8.37,3.91l-.33.2,0-.39a39.12,39.12,0,0,0-3.91-14.94,40,40,0,0,0-10.4-13.29,33,33,0,0,0-10-5.73,38.48,38.48,0,0,0-10.83-1.93c-7.17-.27-13.86.85-19.86,1.9l-.35.06.11-.34a72.53,72.53,0,0,0,3.63-24,54.19,54.19,0,0,0-.63-6.75c-.11-.77-.24-1.36-.3-1.76s-.09-.61-.09-.61a5,5,0,0,1,.15.6c.09.39.24,1,.37,1.75a49.71,49.71,0,0,1,.75,6.76A71.24,71.24,0,0,1,330,76.51l-.24-.27c6-1.08,12.71-2.23,19.95-2a39.35,39.35,0,0,1,11,1.94A33.6,33.6,0,0,1,370.84,82a40.5,40.5,0,0,1,10.51,13.47,39.33,39.33,0,0,1,3.93,15.14l-.35-.19a46.83,46.83,0,0,1,8.47-3.92c1.4-.51,2.81-.87,4.17-1.25s2.71-.62,4-.8a47.55,47.55,0,0,1,13.79-.17,45.09,45.09,0,0,1,8.71,2c1,.32,1.72.65,2.22.84l.56.23Z" style="fill:#e0e0e0"></path><path d="M425.17,46.4a5.2,5.2,0,0,1-.42.79l-1.3,2.21c-1.14,1.92-2.81,4.68-4.9,8.07-4.18,6.78-10.05,16.1-16.57,26.36s-12.39,19.52-16.69,26.28l-5,8-1.38,2.16a5.41,5.41,0,0,1-.52.73,6.65,6.65,0,0,1,.43-.78l1.3-2.22c1.14-1.91,2.81-4.67,4.9-8.06,4.18-6.78,10-16.1,16.56-26.36l16.69-26.28,5-8,1.38-2.16A7.19,7.19,0,0,1,425.17,46.4Z" style="fill:#e0e0e0"></path><path d="M425.4,45.63a1,1,0,0,1-.26.11l-.79.28-3,1-11.19,3.65-36.91,12c-14.42,4.7-27.49,8.91-37,11.89L325,78.07l-3.07.91-.8.22a1,1,0,0,1-.28.06l.26-.11.79-.27,3-1,11.19-3.64,36.92-12c14.41-4.7,27.48-8.91,37-11.89l11.24-3.48,3.07-.91.8-.23A1,1,0,0,1,425.4,45.63Z" style="fill:#e0e0e0"></path><path d="M426.37,89.92s-.79-.21-2.28-.49a34.83,34.83,0,0,0-6.49-.59,50.23,50.23,0,0,0-10,1A45.73,45.73,0,0,0,395.47,94l-.43.22.08-.47C396.3,87.06,393,79.24,387,74a28,28,0,0,0-6.56-4.27,31.71,31.71,0,0,0-7.08-2.42,42.71,42.71,0,0,0-13.56-.35l-.46.06.25-.39a17.2,17.2,0,0,0,2.43-9.78,25.67,25.67,0,0,0-1.58-7.73,31.55,31.55,0,0,0-2.13-4.62c-.28-.51-.53-.89-.68-1.15a4,4,0,0,1-.22-.41,2.53,2.53,0,0,1,.28.37c.16.25.43.62.74,1.12A30.58,30.58,0,0,1,360.72,49a25.25,25.25,0,0,1,1.69,7.79,17.43,17.43,0,0,1-2.41,10l-.21-.33a42.71,42.71,0,0,1,13.71.29,32,32,0,0,1,7.21,2.45,28.64,28.64,0,0,1,6.68,4.34,26.08,26.08,0,0,1,6.84,9.54,19.45,19.45,0,0,1,1.36,10.7l-.34-.26a45.78,45.78,0,0,1,12.29-4.11,48.56,48.56,0,0,1,10.06-.9,31.59,31.59,0,0,1,6.52.72c.75.14,1.31.34,1.69.44A2.66,2.66,0,0,1,426.37,89.92Z" style="fill:#e0e0e0"></path><path d="M425.4,70.56a20.08,20.08,0,0,0-4.82-1.13,16.42,16.42,0,0,0-5.55.49,15.34,15.34,0,0,0-6.26,3.32l-.27.23-.12-.33a23.84,23.84,0,0,0-19.7-15.28l-.34,0,.16-.3a21.42,21.42,0,0,0,2.41-10.94,24.82,24.82,0,0,0-.37-3.18,9.51,9.51,0,0,1-.21-1.13s.05.09.11.28.15.45.24.82a19.67,19.67,0,0,1,.5,3.19,21.12,21.12,0,0,1-2.28,11.17l-.18-.33A24,24,0,0,1,408.83,73l-.38-.09a15.52,15.52,0,0,1,6.48-3.35,15.92,15.92,0,0,1,5.68-.39,15.13,15.13,0,0,1,3.6.85c.4.15.69.31.9.4S425.41,70.55,425.4,70.56Z" style="fill:#e0e0e0"></path><path d="M426.35,55.29a5.26,5.26,0,0,0-2.2-.56,7.18,7.18,0,0,0-5.2,2.2l-.54.57.12-.78a3.82,3.82,0,0,0-.38-1.95A11.17,11.17,0,0,0,417,52.84a11,11,0,0,0-1.87-2,3.23,3.23,0,0,0-2.14-.89l-.74.08.54-.49a10.05,10.05,0,0,0,1.92-2.2,5.48,5.48,0,0,0,.8-2.09,13.28,13.28,0,0,0,0-2,2,2,0,0,1,.17.52,5.7,5.7,0,0,1,.08,1.54,5.51,5.51,0,0,1-.74,2.27,10.26,10.26,0,0,1-1.94,2.34l-.2-.4a3.56,3.56,0,0,1,2.54,1,10.68,10.68,0,0,1,2,2.1,11.35,11.35,0,0,1,1.18,2,4.32,4.32,0,0,1,.39,2.24l-.42-.21a7.24,7.24,0,0,1,5.58-2.17,4,4,0,0,1,1.69.47C426.22,55.1,426.37,55.28,426.35,55.29Z" style="fill:#e0e0e0"></path><rect x="192.93" y="38.92" width="40.36" height="10.68" style="fill:#ebebeb"></rect><path d="M216.22,60.85a1.78,1.78,0,0,1,0-.2V60.1q0-.75,0-2.1c0-1.84,0-4.49-.07-7.83l.12.12-40.36.08c.09-.09-.2.21.21-.2h0v5.4c0,1.79,0,3.54,0,5.26l-.2-.21,28.76.1,8.49,0,2.3,0h.6l.21,0h-.76l-2.25,0-8.45.05-28.9.1h-.2V50.19h0c.41-.41.11-.12.2-.21l40.36.08h.13v.13c0,3.37-.06,6-.07,7.91q0,1.32,0,2.07c0,.22,0,.39,0,.53S216.23,60.85,216.22,60.85Z" style="fill:#e0e0e0"></path><rect x="124.35" y="383.99" width="76.92" height="99.17" style="fill:#ebebeb"></rect><rect x="99.04" y="383.99" width="76.92" height="99.17" style="fill:#f5f5f5"></rect><path d="M114.75,393.58v-4.31h-7.26v4.31a3.63,3.63,0,0,0,3.17,3.59v3.75H109c-.56,0-1,.33-1,.73h6.2c0-.4-.46-.73-1-.73h-1.61v-3.75A3.63,3.63,0,0,0,114.75,393.58Z" style="fill:#e0e0e0;fill-rule:evenodd"></path><path d="M128.65,393.29a5.3,5.3,0,0,0-5.12-4h0a5.3,5.3,0,0,0-5.12,4H123V400a1,1,0,0,1-2,0h-1a2,2,0,0,0,4,0v-6.75Z" style="fill:#e0e0e0;fill-rule:evenodd"></path><path d="M201.46,431.44c0,.13-23.08.23-51.56.23s-51.56-.1-51.56-.23,23.08-.23,51.56-.23S201.46,431.31,201.46,431.44Z" style="fill:#e0e0e0"></path><path d="M137.5,483.57c-.13,0-.23-22.33-.23-49.86s.1-49.86.23-49.86.24,22.32.24,49.86S137.63,483.57,137.5,483.57Z" style="fill:#e0e0e0"></path><rect x="294.91" y="298.06" width="81.26" height="62.67" transform="translate(671.08 658.78) rotate(180)" style="fill:#f5f5f5"></rect><path d="M315.27,360.28c.11,0,.2-14,.2-31.19s-.09-31.2-.2-31.2-.2,14-.2,31.2S315.16,360.28,315.27,360.28Z" style="fill:#ebebeb"></path><rect x="301.8" y="346.46" width="6.23" height="7.04" transform="translate(609.83 699.97) rotate(180)" style="fill:#fafafa"></rect><rect x="342.15" y="298.22" width="9.23" height="13.37" style="fill:#ebebeb"></rect><rect x="342.15" y="347.17" width="9.23" height="13.37" style="fill:#ebebeb"></rect><rect x="241.4" y="360.93" width="158.9" height="122.56" style="fill:#ebebeb"></rect><path d="M360.49,482.63c-.17,0-.31-27.32-.31-61s.14-61,.31-61,.32,27.32.32,61S360.66,482.63,360.49,482.63Z" style="fill:#e0e0e0"></path><rect x="374.65" y="455.6" width="12.18" height="13.77" style="fill:#fafafa"></rect><rect x="289.88" y="361.25" width="18.05" height="26.15" style="fill:#e0e0e0"></rect><rect x="289.88" y="456.98" width="18.05" height="26.15" style="fill:#e0e0e0"></rect><path d="M330.25,147.75a1.78,1.78,0,0,1,0-.2V147q0-.76,0-2.1c0-1.85,0-4.5-.07-7.84l.12.13-40.35.08c.09-.1-.21.2.2-.21h0v5.41c0,1.78,0,3.53,0,5.25l-.2-.2,28.76.09,8.49.06,2.3,0h.6l.21,0h-.76l-2.25,0-8.44.06-28.91.09h-.2V137.09h0c.41-.41.11-.11.21-.2l40.35.08h.13v.12c0,3.37-.05,6.05-.07,7.91q0,1.34,0,2.07c0,.22,0,.39,0,.53S330.26,147.75,330.25,147.75Z" style="fill:#e0e0e0"></path><path d="M489.13,49.61a1.49,1.49,0,0,1,0-.19c0-.15,0-.33,0-.55,0-.5,0-1.2,0-2.1,0-1.85,0-4.5,0-7.84l.08.13-26,.08.13-.21h0V49.61l-.13-.2,18.54.09,5.47.06,1.48,0,.38,0h0l-.37,0-1.45,0-5.44.06-18.63.09H463V39h0l.13-.2,26,.08h.08v.12c0,3.38,0,6,0,7.91,0,.89,0,1.58,0,2.08,0,.21,0,.38,0,.52S489.13,49.61,489.13,49.61Z" style="fill:#e0e0e0"></path><path d="M391.87,243.38a.58.58,0,0,1,0-.19c0-.14,0-.32,0-.55q0-.75,0-2.1c0-1.84,0-4.49-.07-7.83l.13.12-40.36.08.2-.2h0v10.67l-.2-.2,28.76.09,8.49.06,2.29,0h.82l-.19,0h-.57l-2.26,0-8.44.05-28.9.09h-.2v-.21c0-1.71,0-3.47,0-5.25v-5.42h0l.21-.21,40.36.08H392v.13c0,3.37-.05,6-.07,7.91q0,1.32,0,2.07c0,.21,0,.39,0,.52A.86.86,0,0,1,391.87,243.38Z" style="fill:#e0e0e0"></path><path d="M83,223a1.78,1.78,0,0,1,0-.2v-.54q0-.76,0-2.1c0-1.85,0-4.5-.07-7.84l.12.13-40.35.08c.09-.09-.21.2.2-.21h0v5.41c0,1.78,0,3.53,0,5.25l-.2-.2,28.76.09,8.49.06,2.3,0,.6,0a.67.67,0,0,1,.21,0h-.76L80,223l-8.44.06-28.91.09h-.2V212.33h0c.41-.41.11-.11.21-.2l40.35.08h.13v.12c0,3.37-.05,6.05-.07,7.91q0,1.34,0,2.07v.53C83,222.94,83,223,83,223Z" style="fill:#e0e0e0"></path><path d="M88.47,212.31s0-.07,0-.2l0-.57c0-.52,0-1.24,0-2.14,0-1.87-.05-4.51-.08-7.77l.15.15-24.25.06.2-.2h0v5.48c0,1.79,0,3.52,0,5.18l-.19-.19,17.34.09,5.06,0,1.36,0,.49,0-.44,0-1.33,0-5,0-17.47.1H64v-.2c0-1.66,0-3.39,0-5.18v-5.48h0l.21-.21,24.25.06h.14v.14c0,3.29-.06,6-.08,7.86,0,.89,0,1.59,0,2.11A6,6,0,0,1,88.47,212.31Z" style="fill:#e0e0e0"></path><path d="M485.33,333.81a.58.58,0,0,1,0-.19l0-.55q0-.75,0-2.1c0-1.84,0-4.49-.07-7.83l.13.12-40.36.08.2-.2h0v10.66l-.2-.2,28.76.09,8.49.06,2.29,0h.82l-.19,0h-.58l-2.25,0-8.44.06L445,334h-.2v-.2c0-1.71,0-3.47,0-5.25v-5.41h0c.41-.42.12-.12.21-.21l40.36.08h.12v.13c0,3.37-.05,6-.07,7.9,0,.89,0,1.58,0,2.08v.52A.86.86,0,0,1,485.33,333.81Z" style="fill:#e0e0e0"></path><path d="M490.8,323.14a1.07,1.07,0,0,1,0-.21v-.56c0-.53,0-1.24,0-2.14,0-1.88,0-4.52-.08-7.77l.15.15-24.25.05c-.18.19.25-.25.21-.2h0v2.76c0,.92,0,1.83,0,2.72v5.18l-.2-.2,17.35.09,5.05.06,1.36,0,.49,0-.44,0-1.32,0-5,.06-17.48.09h-.2v-8.09c0-.46,0-.92,0-1.38v-1.38h0l.21-.21,24.25.06H491v.15c0,3.29-.06,6-.08,7.86,0,.88,0,1.59,0,2.1A6.29,6.29,0,0,1,490.8,323.14Z" style="fill:#e0e0e0"></path><rect x="112.82" y="24.98" width="2.09" height="6.08" transform="translate(85.85 141.88) rotate(-90)" style="fill:#e0e0e0"></rect><rect x="60.16" y="118.89" width="2.09" height="6.08" transform="translate(122.41 243.85) rotate(180)" style="fill:#e0e0e0"></rect><rect x="112.82" y="94.95" width="2.09" height="6.08" transform="translate(15.88 211.85) rotate(-90)" style="fill:#e0e0e0"></rect><path d="M113.86,11.74s0,.18,0,.52,0,.89,0,1.55c0,1.38,0,3.38,0,5.94,0,5.18.05,12.64.09,21.86s0,20.21,0,32.41c0,6.1,0,12.5,0,19.14v15.3a19.72,19.72,0,0,1-.38,5.28,11.71,11.71,0,0,1-6.73,7.79,12.62,12.62,0,0,1-5.09.9h-5l-19.15,0-32.41,0-21.85-.09-5.94,0-1.55,0-.53,0,.53,0,1.55,0,5.94-.05L45.34,122l32.41-.06h24.17a12.24,12.24,0,0,0,4.89-.87,11.15,11.15,0,0,0,6.42-7.44,19.22,19.22,0,0,0,.37-5.15v-5.18c0-3.43,0-6.8,0-10.12,0-6.64,0-13,0-19.14,0-12.2,0-23.18.06-32.41s.06-16.68.08-21.86c0-2.56,0-4.56,0-5.94,0-.66,0-1.18,0-1.55S113.86,11.74,113.86,11.74Z" style="fill:#e0e0e0"></path><rect x="421.12" y="461.13" width="2.36" height="6.87" transform="translate(886.86 42.26) rotate(90)" style="fill:#e0e0e0"></rect><rect x="480.66" y="354.95" width="2.36" height="6.87" style="fill:#e0e0e0"></rect><rect x="421.12" y="382.02" width="2.36" height="6.87" transform="translate(807.76 -36.85) rotate(90)" style="fill:#e0e0e0"></rect><path d="M422.3,483s0-.17,0-.5,0-.83,0-1.45c0-1.3,0-3.17-.05-5.58,0-4.86-.05-11.87-.08-20.52,0-17.34-.05-41.27-.08-67.69v-9.79c0-1.61,0-3.21,0-4.79a19,19,0,0,1,.37-4.75,13,13,0,0,1,5.11-7.59,13.38,13.38,0,0,1,8.43-2.45l30.44.06,20.52.08,5.58.05,1.45,0,.49,0-.49,0-1.45,0-5.58,0-20.52.09-30.44,0a12.93,12.93,0,0,0-8.14,2.37,12.52,12.52,0,0,0-4.91,7.31,18.63,18.63,0,0,0-.35,4.63v14.58c0,26.42-.05,50.35-.07,67.69,0,8.65-.07,15.66-.09,20.52,0,2.41,0,4.28,0,5.58,0,.62,0,1.11,0,1.45S422.3,483,422.3,483Z" style="fill:#e0e0e0"></path></g><g id="freepik--Character--inject-91"><path d="M149,450.4l.48,21.09S128.24,479.06,128,483l40.92.52.59-32.88Z" style="fill:#4CE779"></path><g style="opacity:0.6000000000000001"><path d="M162.19,469.88a1.67,1.67,0,0,1,1.13,1.92,1.6,1.6,0,0,1-1.9,1.13,1.76,1.76,0,0,1-1.18-2,1.66,1.66,0,0,1,2.1-1" style="fill:#fff"></path></g><g style="opacity:0.6000000000000001"><path d="M168.87,483.49l-.07-3.31-39.2.73s-1.84.77-1.65,2.06Z" style="fill:#fff"></path></g><path d="M148.85,471.27c0,.2,1,.3,2,1s1.49,1.5,1.67,1.42-.1-1.23-1.29-2S148.81,471.09,148.85,471.27Z" style="fill:#263238"></path><path d="M144.54,473c0,.19.81.54,1.48,1.4s.85,1.75,1,1.74.34-1.13-.51-2.18S144.54,472.8,144.54,473Z" style="fill:#263238"></path><path d="M142,478.1c.19,0,.48-1,0-2.06s-1.43-1.54-1.52-1.38.49.76.88,1.67S141.84,478.07,142,478.1Z" style="fill:#263238"></path><path d="M149.27,466.45c.09.18,1-.08,2.13,0s2,.46,2.12.29-.74-.89-2.07-1S149.18,466.29,149.27,466.45Z" style="fill:#263238"></path><g style="opacity:0.30000000000000004"><polygon points="149.13 454.58 149.21 458.33 169.32 458.41 169.41 454.07 149.13 454.58"></polygon></g><path d="M149.25,462.2a3.94,3.94,0,0,0,2.05,0,9.27,9.27,0,0,0,3.34-1.24,2.7,2.7,0,0,0,.63-.47.89.89,0,0,0,.1-1.07,1.09,1.09,0,0,0-.87-.46,2.59,2.59,0,0,0-.77.09,8.34,8.34,0,0,0-1.28.42,7.42,7.42,0,0,0-1.9,1.22c-1,.87-1.3,1.61-1.23,1.65s.56-.55,1.54-1.27a7.87,7.87,0,0,1,1.84-1,7.78,7.78,0,0,1,1.18-.35c.43-.11.8-.11.91.09s0,.1,0,.23a2.1,2.1,0,0,1-.46.34,10.63,10.63,0,0,1-3.08,1.34A13.11,13.11,0,0,0,149.25,462.2Z" style="fill:#263238"></path><path d="M149.51,462.49a3.27,3.27,0,0,0,.57-2,6.83,6.83,0,0,0-.25-2.24,6.66,6.66,0,0,0-.51-1.26A1.7,1.7,0,0,0,148,456a1,1,0,0,0-.87.56,2.82,2.82,0,0,0-.22.75,4.58,4.58,0,0,0,0,1.38,4.77,4.77,0,0,0,.85,2.13c.79,1.07,1.62,1.32,1.64,1.25s-.63-.49-1.23-1.52a4.59,4.59,0,0,1-.57-3.12c.07-.43.24-.78.4-.73s.55.33.71.68a6.05,6.05,0,0,1,.49,1.12,7.6,7.6,0,0,1,.38,2.05C149.63,461.71,149.4,462.45,149.51,462.49Z" style="fill:#263238"></path><path d="M220.79,450.56l-.8,21.07s21.16,7.89,21.39,11.8l-40.92-.07-.11-32.9Z" style="fill:#4CE779"></path><g style="opacity:0.6000000000000001"><path d="M207.34,469.84a1.67,1.67,0,0,0-1.16,1.9,1.62,1.62,0,0,0,1.88,1.17,1.77,1.77,0,0,0,1.22-2,1.67,1.67,0,0,0-2.09-1" style="fill:#fff"></path></g><g style="opacity:0.6000000000000001"><path d="M200.46,483.36l.12-3.32,39.19,1.31s1.82.79,1.61,2.08Z" style="fill:#fff"></path></g><path d="M220.66,471.43c0,.2-1,.28-2,.93s-1.51,1.48-1.7,1.4.12-1.24,1.32-2S220.7,471.24,220.66,471.43Z" style="fill:#263238"></path><path d="M225,473.21c0,.19-.82.53-1.5,1.37s-.88,1.74-1.08,1.73-.33-1.14.54-2.17S224.94,473,225,473.21Z" style="fill:#263238"></path><path d="M227.38,478.35c-.19,0-.46-1,.05-2.05s1.45-1.53,1.54-1.36-.5.75-.91,1.65S227.57,478.33,227.38,478.35Z" style="fill:#263238"></path><path d="M220.31,466.6c-.09.18-1-.09-2.13,0s-2,.43-2.12.26.74-.88,2.08-.95S220.4,466.45,220.31,466.6Z" style="fill:#263238"></path><g style="opacity:0.30000000000000004"><polygon points="220.63 454.73 220.49 458.49 200.38 458.27 200.35 453.93 220.63 454.73"></polygon></g><path d="M220.39,462.35a3.91,3.91,0,0,1-2,0,9.08,9.08,0,0,1-2.15-.66A9,9,0,0,1,215,461a2.48,2.48,0,0,1-.62-.48.86.86,0,0,1-.09-1.06,1.1,1.1,0,0,1,.88-.46,2.55,2.55,0,0,1,.77.11,7,7,0,0,1,1.27.44,7.64,7.64,0,0,1,1.89,1.24c.94.88,1.27,1.63,1.2,1.67s-.55-.56-1.52-1.29a7.92,7.92,0,0,0-1.82-1,8.14,8.14,0,0,0-1.18-.37c-.43-.11-.8-.12-.91.08s0,.1,0,.23a2.1,2.1,0,0,0,.46.35,9.94,9.94,0,0,0,1.08.62,10.42,10.42,0,0,0,2,.76A13.61,13.61,0,0,1,220.39,462.35Z" style="fill:#263238"></path><path d="M220.13,462.63a3.23,3.23,0,0,1-.54-2,6.47,6.47,0,0,1,.81-3.48,1.69,1.69,0,0,1,1.31-1,1,1,0,0,1,.85.58,2.58,2.58,0,0,1,.21.75,4.91,4.91,0,0,1,0,1.38,4.7,4.7,0,0,1-.88,2.11c-.8,1.06-1.64,1.3-1.65,1.23s.63-.48,1.24-1.5a4.73,4.73,0,0,0,.65-1.93,4.27,4.27,0,0,0,0-1.18c-.07-.43-.23-.79-.39-.74s-.55.32-.72.67a6.85,6.85,0,0,0-.51,1.11,7.32,7.32,0,0,0-.4,2C220,461.85,220.23,462.6,220.13,462.63Z" style="fill:#263238"></path><polygon points="199.3 247.78 225.52 469.92 200.49 471.09 169.82 288.65 171.12 470.12 145.88 468.56 133.4 257.89 199.3 247.78" style="fill:#263238"></polygon><path d="M148.84,125.84a71.67,71.67,0,0,1-3.28-12,25.23,25.23,0,0,1,.83-12.3c.22-.59,2-4.57,2.66-4.52.45,0-.66,3.75-.42,4.13a21.41,21.41,0,0,1,2.55,12.42,55.79,55.79,0,0,1-2.34,12.26" style="fill:#263238"></path><path d="M160.47,160.42a11.82,11.82,0,0,1-11.73-11.68l-.5-38.73c-.47-10.4,5.2-19.34,15.61-19.52l1,0a18.61,18.61,0,0,1,17.83,17.87c.35,9,.63,19,.37,23.8-.54,10-10.58,11.11-10.58,11.11s0,2.32,0,5.25a11.84,11.84,0,0,1-11.94,11.86Z" style="fill:#b78876"></path><path d="M172.43,143.31a24.16,24.16,0,0,1-12.84-4.37s2.87,7.38,12.87,6.9Z" style="fill:#995037"></path><path d="M179.87,116.48a1.43,1.43,0,0,1-1.43,1.38,1.37,1.37,0,0,1-1.42-1.34,1.43,1.43,0,0,1,1.43-1.39A1.37,1.37,0,0,1,179.87,116.48Z" style="fill:#263238"></path><path d="M180.74,114.5c-.19.18-1.23-.67-2.77-.73s-2.69.67-2.85.47.12-.41.62-.75a3.85,3.85,0,0,1,2.29-.6,3.74,3.74,0,0,1,2.2.81C180.68,114.08,180.83,114.42,180.74,114.5Z" style="fill:#263238"></path><path d="M166.23,115.71c-.18.18-1.23-.66-2.77-.72s-2.69.66-2.84.46.11-.41.62-.75a4,4,0,0,1,2.29-.6,3.74,3.74,0,0,1,2.19.81C166.17,115.29,166.32,115.63,166.23,115.71Z" style="fill:#263238"></path><path d="M170.3,124.46a10.72,10.72,0,0,1,2.51-.34c.39,0,.77-.09.85-.35a2.08,2.08,0,0,0-.22-1.18c-.33-1-.67-2-1-3-1.44-4.31-2.46-7.85-2.28-7.91s1.48,3.4,2.91,7.71l1,3a2.22,2.22,0,0,1,.14,1.54,1,1,0,0,1-.66.55,2.81,2.81,0,0,1-.67.06A9.87,9.87,0,0,1,170.3,124.46Z" style="fill:#263238"></path><path d="M171.92,129.86c-.22.11-.89-1.42-2.66-1.93s-3.34.35-3.44.15.23-.46.91-.78a4.22,4.22,0,0,1,2.83-.21,3.58,3.58,0,0,1,2.14,1.67C172,129.37,172,129.82,171.92,129.86Z" style="fill:#263238"></path><path d="M166.61,113.18c-.22.39-1.7-.08-3.51-.18s-3.33.13-3.5-.28c-.07-.2.24-.54.89-.83a6.12,6.12,0,0,1,5.34.35C166.44,112.62,166.71,113,166.61,113.18Z" style="fill:#263238"></path><path d="M180.2,109.55c-.3.35-1.54,0-3,0s-2.73.29-3-.07c-.13-.17.06-.52.6-.87a5,5,0,0,1,4.88,0C180.16,109,180.34,109.37,180.2,109.55Z" style="fill:#263238"></path><path d="M148.75,117.43c-.17-.08-6.78-2.31-6.84,4.53s6.81,5.48,6.82,5.29S148.75,117.43,148.75,117.43Z" style="fill:#b78876"></path><path d="M146.67,124.64s-.12.08-.32.17a1.17,1.17,0,0,1-.89,0,2.93,2.93,0,0,1-1.34-2.65,3.83,3.83,0,0,1,.35-1.7,1.37,1.37,0,0,1,.9-.91.61.61,0,0,1,.7.33c.09.19.05.33.08.34s.15-.11.1-.39a.76.76,0,0,0-.27-.43.84.84,0,0,0-.65-.18,1.68,1.68,0,0,0-1.26,1,4.18,4.18,0,0,0-.43,1.9,3.09,3.09,0,0,0,1.71,3,1.27,1.27,0,0,0,1.09-.17C146.65,124.8,146.69,124.65,146.67,124.64Z" style="fill:#995037"></path><path d="M178.23,97.07c1.1-.61-2.21-4.19-4.93-5.42-4.11-1.87-10.38-3-14.17-2-4.56,1.29-8.35,3.56-10.64,7.71a26.88,26.88,0,0,0-3,13.72,8.17,8.17,0,0,0,1,4.17c.95,1.51,2.78,2.47,2.7,4.55a2.89,2.89,0,0,0,.71,2.09c1.25,1.33,2.78.08,3.48-1.17,1.51-2.68,1.68-5.87,1.81-8.94a19.93,19.93,0,0,0-.43-6.5c-.33-1.14-.87-2.21-1.14-3.37a4.1,4.1,0,0,1,.49-3.41,3.52,3.52,0,0,1,.55-.56,7.12,7.12,0,0,1,7.07-1.34c3.85,1.36,10.42,3.4,12.14,2.09a10.56,10.56,0,0,0,3.06-3.1Z" style="fill:#263238"></path><path d="M203.52,271.36l-4.21-37.77-3.16-58.13-1.92-26.32-5.06.77-3.62-.95-7.35,1.45-3.84-5.9-1.9-.36c0,4.81-.72,9.24-3.18,12.44l-19.84-14.86-2.1.54-3.4,7.58s-20.76,11.78-21.88,13.46L133,197l.91,37.24-1.67,37.16Z" style="fill:#4CE779"></path><path d="M136,174.11c-.08,0-.41-.89-1.21-2.23a17.15,17.15,0,0,0-3.95-4.53,16.9,16.9,0,0,0-5.31-2.83c-1.48-.48-2.45-.59-2.43-.69a2,2,0,0,1,.69,0,11.61,11.61,0,0,1,1.85.33,15.16,15.16,0,0,1,5.52,2.79,14.93,14.93,0,0,1,3.95,4.75,10,10,0,0,1,.74,1.73C136,173.86,136.07,174.09,136,174.11Z" style="fill:#263238"></path><path d="M190,156.46a7.23,7.23,0,0,1-.57-2.66,7.43,7.43,0,0,1-.06-2.71,13.81,13.81,0,0,1,.63,5.37Z" style="fill:#263238"></path><path d="M185.5,252.84a2.36,2.36,0,0,1-.5,0l-1.41-.16c-1.22-.14-3-.42-5.15-.82a107.56,107.56,0,0,1-32.29-11.69c-1.93-1.07-3.46-2-4.49-2.67-.47-.31-.87-.56-1.19-.78s-.4-.28-.39-.3a2.15,2.15,0,0,1,.45.22l1.23.69c1.07.62,2.62,1.49,4.56,2.52a120.89,120.89,0,0,0,32.19,11.65c2.15.44,3.9.77,5.11,1l1.4.25A1.79,1.79,0,0,1,185.5,252.84Z" style="fill:#263238"></path><path d="M229.94,142.45,212.21,114l-6-9.71a22.25,22.25,0,0,0-2.8-4c-2.67-2.9-4.56-.81-4.56-.81a1.8,1.8,0,0,0-1.78-1.1,3,3,0,0,0-2.45,1.25,4.14,4.14,0,0,0-2.74-.93,2.09,2.09,0,0,0-1.27.41c-.66-.58-1.87-1.41-3-1-.91.33-6.42,4.52-7.78,6.63-.67,1,.57,2.4,2.25,1.77a14.63,14.63,0,0,0,2-.82,5.37,5.37,0,0,0,1.36-1.1s-1.39,2.44,0,2.86a3.17,3.17,0,0,0,2.61-.63c.53-.45,1.14-1,1.72-1.59a.36.36,0,0,0-.07.1c-.77,1.13,1.23,2.81,2.2,2.13a13.4,13.4,0,0,0,1.3-1c2.25,1.63-.88,3.72-2.2,3.61a41.48,41.48,0,0,0-6.1,0,4.37,4.37,0,0,0-2.79,1c-.74.76,0,2.38,1.09,2.54,2,.3,4.42.73,7,1.39,3,.78,11,3.36,11,3.36l.77.63,10.78,26.29-18.45,3.91-4.12,23.38,33.31-9C230.93,159.58,234.49,149.59,229.94,142.45Z" style="fill:#b78876"></path><path d="M201.13,118.31a1.89,1.89,0,0,1-.42-.1l-1.2-.34-4.38-1.3-3-.92c-1.09-.33-2.25-.68-3.49-1a32,32,0,0,0-3.9-.81,6.78,6.78,0,0,1-2.12-.38,1.48,1.48,0,0,1-.47-.36.64.64,0,0,1-.16-.28l-.05-.29a2.65,2.65,0,0,1,.08-1.15,1.56,1.56,0,0,1,.76-.89,5.52,5.52,0,0,1,1-.41,7.17,7.17,0,0,1,2.14-.26c1.41,0,2.73.21,4,.16a13.35,13.35,0,0,0,1.83-.18c.59-.11,1.16-.26,1.71-.4a9.07,9.07,0,0,1,3.15-.4,8.5,8.5,0,0,1,2.54.64,17.3,17.3,0,0,1,1.77.87c.48.27.83.49,1.07.64a2.13,2.13,0,0,1,.36.24,2.56,2.56,0,0,1-.38-.19l-1.1-.59a16.3,16.3,0,0,0-1.78-.82,8.42,8.42,0,0,0-2.5-.59,8.76,8.76,0,0,0-3.07.42c-.55.15-1.12.31-1.72.42a11.39,11.39,0,0,1-1.87.2c-1.29.06-2.64-.13-4-.15a6.79,6.79,0,0,0-2.05.26c-.66.21-1.42.45-1.62,1.12a2.5,2.5,0,0,0-.06,1l0,.25a.46.46,0,0,0,.1.18,1.14,1.14,0,0,0,.39.29,7,7,0,0,0,2,.36,32,32,0,0,1,3.93.83c1.24.32,2.4.67,3.48,1l3,.95,4.36,1.39,1.18.39A2.77,2.77,0,0,1,201.13,118.31Z" style="fill:#995037"></path><path d="M187.47,98.13c0,.05-.84.55-2.12,1.52a23.27,23.27,0,0,0-2.12,1.83c-.75.74-1.55,1.6-2.49,2.41a2.64,2.64,0,0,0-1,1.33.95.95,0,0,0,.66,1.16,2.74,2.74,0,0,0,1.42,0,6.5,6.5,0,0,0,1.24-.36,8.9,8.9,0,0,0,2.2-1.33,2.51,2.51,0,0,1-.49.51,6.63,6.63,0,0,1-1.63,1,6.78,6.78,0,0,1-1.27.4,3.06,3.06,0,0,1-1.56,0,1.28,1.28,0,0,1-.7-.54,1.3,1.3,0,0,1-.14-.92,2.82,2.82,0,0,1,1.09-1.49c.92-.8,1.72-1.65,2.49-2.38a18.4,18.4,0,0,1,2.19-1.81c.65-.47,1.21-.81,1.6-1A3.94,3.94,0,0,1,187.47,98.13Z" style="fill:#995037"></path><path d="M194.23,100.37a6.23,6.23,0,0,1-.63.75l-1.78,1.95L189.16,106a6.45,6.45,0,0,1-1.88,1.43,2.84,2.84,0,0,1-1.24.31,1.7,1.7,0,0,1-1.24-.5,1.14,1.14,0,0,1-.3-.67,2,2,0,0,1,.08-.7,3.91,3.91,0,0,1,.57-1.18h0l2.64-2.84c.81-.87,1.59-1.57,2.22-2.17a4.64,4.64,0,0,1,.93-.74,2.29,2.29,0,0,1,.88-.19c.47,0,.75,0,.73.06a2.23,2.23,0,0,0-.73,0A2.46,2.46,0,0,0,191,99a4.72,4.72,0,0,0-.87.75c-.62.62-1.38,1.33-2.17,2.2s-1.67,1.84-2.62,2.87v0a4,4,0,0,0-.52,1.1,1.71,1.71,0,0,0-.07.59.89.89,0,0,0,.23.51,1.41,1.41,0,0,0,1,.41,2.48,2.48,0,0,0,1.12-.28,6.44,6.44,0,0,0,1.8-1.35l2.71-2.84,1.84-1.9.51-.5A.9.9,0,0,1,194.23,100.37Z" style="fill:#995037"></path><path d="M202.51,103s0,.17-.21.32a1.17,1.17,0,0,1-.9.22,1.19,1.19,0,0,1-.77-.51c-.12-.21-.12-.36-.09-.37s.11.1.25.24a1.2,1.2,0,0,0,.66.36,1.31,1.31,0,0,0,.74-.11C202.38,103,202.48,103,202.51,103Z" style="fill:#995037"></path><path d="M203.16,105.46c-.06.05-.46-.36-.82-1a2.33,2.33,0,0,1-.45-1.19c.07,0,.34.46.69,1A3.9,3.9,0,0,1,203.16,105.46Z" style="fill:#995037"></path><path d="M204.36,115.13a3.44,3.44,0,0,1-.52-1.12,9.48,9.48,0,0,1-.44-3,9.29,9.29,0,0,1,.52-2.94,4.21,4.21,0,0,1,.54-1.12,15.37,15.37,0,0,0-.78,4.06A14.57,14.57,0,0,0,204.36,115.13Z" style="fill:#995037"></path><path d="M218.92,152.61c-.06,0-.11-.58-.39-1.46a9.32,9.32,0,0,0-.64-1.48,8.88,8.88,0,0,0-2.59-2.95,8.3,8.3,0,0,0-1.39-.83c-.84-.39-1.41-.52-1.39-.57s.14,0,.4.05a6,6,0,0,1,1.07.34,7.62,7.62,0,0,1,1.46.79,8.41,8.41,0,0,1,2.67,3.05,8.12,8.12,0,0,1,.6,1.55,6.2,6.2,0,0,1,.2,1.1A1.49,1.49,0,0,1,218.92,152.61Z" style="fill:#995037"></path><path d="M197.85,101.31a2.38,2.38,0,0,1-.28.42c-.2.26-.49.62-.86,1.06-.74.89-1.8,2.08-3,3.33a5.49,5.49,0,0,1-2,1.53,1.71,1.71,0,0,1-1.14,0,1.42,1.42,0,0,1-.73-.67,2.23,2.23,0,0,1-.21-1.38,1.27,1.27,0,0,1,.13-.49,2.38,2.38,0,0,1,0,.5,2.35,2.35,0,0,0,.27,1.27,1.24,1.24,0,0,0,.64.55,1.5,1.5,0,0,0,1,0,5.64,5.64,0,0,0,1.87-1.49c1.24-1.24,2.32-2.41,3.09-3.26A12.57,12.57,0,0,1,197.85,101.31Z" style="fill:#995037"></path><path d="M201.7,101.73a2.4,2.4,0,0,1-.3.39c-.21.24-.51.58-.89,1l-1.35,1.46-.8.85a7.22,7.22,0,0,1-.94.87,2.33,2.33,0,0,1-1.21.48,1.26,1.26,0,0,1-1.14-.5.93.93,0,0,1-.18-.58,1,1,0,0,1,.17-.53,8.93,8.93,0,0,1,.54-.76c.33-.46.6-.82.8-1.07a1.81,1.81,0,0,1,.32-.37s-.07.16-.24.43-.42.65-.73,1.11c-.15.24-.35.49-.5.76a.75.75,0,0,0,0,.87,1,1,0,0,0,.92.38,2,2,0,0,0,1.08-.44,6.55,6.55,0,0,0,.91-.83l.81-.84,1.38-1.41.95-.94C201.55,101.83,201.68,101.72,201.7,101.73Z" style="fill:#995037"></path><polygon points="192.54 149.4 208.03 146.01 206.12 172.52 190.61 178.97 187.36 174.6 186.87 160.92 192.54 149.4" style="fill:#4CE779"></polygon><path d="M122.37,163a7.17,7.17,0,0,0-3.16,4.34c-.94,3.2-8.66,30-8.66,30l13-.33,10.33-12.55L126,163.28Z" style="fill:#4CE779"></path><polygon points="191.01 229.63 361.68 259.41 351.42 135.4 191.01 206.78 191.01 229.63" style="fill:#4CE779"></polygon><g style="opacity:0.8"><polygon points="191.01 229.63 361.68 259.41 351.42 135.4 191.01 206.78 191.01 229.63" style="fill:#fff"></polygon></g><path d="M310.87,193.15a2.4,2.4,0,1,1-3.38-.36A2.4,2.4,0,0,1,310.87,193.15Z" style="fill:#4CE779"></path><g style="opacity:0.6000000000000001"><path d="M310.87,193.15a2.4,2.4,0,1,1-3.38-.36A2.4,2.4,0,0,1,310.87,193.15Z" style="fill:#fff"></path></g><path d="M252.91,200.85a1.2,1.2,0,1,1-1.69-.18A1.21,1.21,0,0,1,252.91,200.85Z" style="fill:#4CE779"></path><g style="opacity:0.6000000000000001"><path d="M252.91,200.85a1.2,1.2,0,1,1-1.69-.18A1.21,1.21,0,0,1,252.91,200.85Z" style="fill:#fff"></path></g><path d="M281.86,215a1.2,1.2,0,1,1-1.68-.18A1.2,1.2,0,0,1,281.86,215Z" style="fill:#4CE779"></path><g style="opacity:0.6000000000000001"><path d="M281.86,215a1.2,1.2,0,1,1-1.68-.18A1.2,1.2,0,0,1,281.86,215Z" style="fill:#fff"></path></g><circle cx="302.54" cy="178.07" r="1.2" style="fill:#4CE779"></circle><g style="opacity:0.6000000000000001"><circle cx="302.54" cy="178.07" r="1.2" style="fill:#fff"></circle></g><path d="M199.36,210.42a1.19,1.19,0,1,1-1.68-.18A1.18,1.18,0,0,1,199.36,210.42Z" style="fill:#4CE779"></path><g style="opacity:0.6000000000000001"><path d="M199.36,210.42a1.19,1.19,0,1,1-1.68-.18A1.18,1.18,0,0,1,199.36,210.42Z" style="fill:#fff"></path></g><ellipse cx="357.85" cy="197.28" rx="19.11" ry="62.32" transform="translate(-14.1 28.08) rotate(-4.41)" style="fill:#4CE779"></ellipse><g style="opacity:0.7000000000000001"><ellipse cx="357.85" cy="197.28" rx="19.11" ry="62.32" transform="translate(-14.1 28.08) rotate(-4.41)" style="fill:#fff"></ellipse></g><g style="opacity:0.30000000000000004"><path d="M189.62,170.9a6.43,6.43,0,0,0-3.31-2.23c-6.12-2.18-13.09-.44-18.57,3s-9.78,8.51-14,13.46c-6.92,8.16-13.57,14.67-20.49,22.83l.15,6.18c5,.09,9.9-2.69,13.61-6s6.5-7.47,9.18-11.65,5.29-8.44,8.73-12a8,8,0,0,1,4.54-2.79c1.85-.23,3.63.68,5.43,1.19a13.07,13.07,0,0,0,14.09-5.3C190.29,175.63,191,172.88,189.62,170.9Z"></path></g><g style="opacity:0.30000000000000004"><path d="M180.21,205.74c-2.33-.28-4.55,1.37-5.67,3.43a17.9,17.9,0,0,0-1.62,6.8q-.9,8.68-1.78,17.37a14.52,14.52,0,0,0,.3,6.4,14.22,14.22,0,0,0,2.34,3.8,13.46,13.46,0,0,0,3.23,3.33,11.57,11.57,0,0,0,5.62,1.44,39.37,39.37,0,0,0,8.26-.42,7,7,0,0,0,4-1.61,7.09,7.09,0,0,0,1.6-3.7c2-9.93.55-20.2-.91-30.24-.31-2.13-.66-4.37-2-6.06-1.72-2.18-4.76-3-7.52-2.66a25,25,0,0,0-7.83,2.71"></path></g><path d="M111.9,194.18l-2.2,5.88c-.65,2.47-1.63,7.82-.75,10.22.7,1.91,1.92,3.74,4,4,4.67.66,16.39-9.2,16.39-9.2l-2.74-12.33Z" style="fill:#b78876"></path><path d="M162.17,161.53s-40.22,26.19-42,27.5a22.38,22.38,0,0,0-7.26,7.11c-3.27,4.72-5.18,15.84.07,18.17a23.81,23.81,0,0,0,7.27.62c5.65-1,17.75-7.53,23.4-14.38s25.48-27.82,25.48-27.82Z" style="fill:#b78876"></path><path d="M161.59,161.91s5.64-2.4,7.53-2.51c1.53-.08,12.53,1.69,16.37,1.75a2.24,2.24,0,0,1,2,1.3c1,2.17,2.92,6.37,3.26,7.14.48,1.06-.33,3.24-1.32,4.58a1.66,1.66,0,0,1-2.43,1.21l-.43,1.06a3.12,3.12,0,0,1-3.17,1.91l-5.67-.55a2,2,0,0,1,2-2.32l3.2-.33-.05-1.75s-5.63.75-7.32.73-10.5-1.65-10.5-1.65Z" style="fill:#b78876"></path><path d="M187.17,175.43c-.15,0-.35-2.15-1.08-4.71s-1.68-4.5-1.54-4.57a15.68,15.68,0,0,1,2.62,9.28Z" style="fill:#995037"></path><path d="M189.65,173.43c-.16,0-.35-2.16-1.08-4.71s-1.68-4.5-1.54-4.58a15.74,15.74,0,0,1,2.62,9.29Z" style="fill:#995037"></path><path d="M123.82,186.59c.12.16-4.09,2.31-7.87,6.56s-5.33,8.73-5.51,8.63a2.56,2.56,0,0,1,.21-.79,21.56,21.56,0,0,1,.85-2.06,25.81,25.81,0,0,1,4.06-6.12,27.43,27.43,0,0,1,5.58-4.78c.8-.5,1.45-.89,1.93-1.12S123.8,186.55,123.82,186.59Z" style="fill:#995037"></path><path d="M183.13,173a3.71,3.71,0,0,1-.63.17c-.42.09-1,.21-1.84.31a24.58,24.58,0,0,1-6.87-.05c-.72-.1-1.47-.23-2.25-.37a11.29,11.29,0,0,0-2.37-.29,3.2,3.2,0,0,0-2,1.28c-.58.67-1.17,1.43-1.82,2.12l-8.39,9.19c-6,6.49-11.65,12.15-15.78,16.21-2.06,2-3.76,3.64-4.94,4.74l-1.37,1.26a3.55,3.55,0,0,1-.5.42s.13-.18.43-.49.77-.79,1.3-1.33l4.82-4.87c4.06-4.11,9.66-9.81,15.66-16.29l8.41-9.16c.67-.69,1.22-1.4,1.83-2.11a3.66,3.66,0,0,1,2.34-1.4,4.65,4.65,0,0,1,1.31.1l1.18.23,2.23.4a26.51,26.51,0,0,0,6.79.21c.81-.07,1.43-.16,1.85-.21A3.1,3.1,0,0,1,183.13,173Z" style="fill:#fff"></path><path d="M186.42,175.34c.05,0,0,.54-.56,1.15a4.51,4.51,0,0,1-2.76,1.4,8.3,8.3,0,0,1-3-.24c-.75-.19-1.19-.36-1.18-.43a3.56,3.56,0,0,1,1.25.07,11.28,11.28,0,0,0,2.91.08,4.87,4.87,0,0,0,2.57-1.13C186.15,175.75,186.34,175.31,186.42,175.34Z" style="fill:#fff"></path><path d="M189,173.43c.14,0,.13.4,0,.78s-.37.65-.5.6-.13-.4,0-.78S188.82,173.38,189,173.43Z" style="fill:#fff"></path><path d="M192.83,255.71a7.31,7.31,0,0,1-1.47,0c-.94,0-2.3,0-4-.15a94.18,94.18,0,0,1-25.7-5.4c-1.58-.58-2.85-1.08-3.71-1.46a7.2,7.2,0,0,1-1.32-.63,9.14,9.14,0,0,1,1.4.44c.88.33,2.16.77,3.75,1.3a116.48,116.48,0,0,0,12.65,3.44,119.45,119.45,0,0,0,13,1.94c1.67.15,3,.26,4,.32A7.66,7.66,0,0,1,192.83,255.71Z" style="fill:#fff"></path><path d="M181.43,135.09a2.2,2.2,0,0,1-.13.85,6.28,6.28,0,0,1-1,2.13,10,10,0,0,1-6.67,3.8,18,18,0,0,1-7.69-.88c-.94-.29-1.69-.57-2.2-.78a3,3,0,0,1-.78-.38,30.92,30.92,0,0,1,3.09.81,19.82,19.82,0,0,0,7.51.72,10.18,10.18,0,0,0,6.45-3.51A10.68,10.68,0,0,0,181.43,135.09Z" style="fill:#fff"></path><path d="M205.07,171.76a19.15,19.15,0,0,1-3.89,2,17.74,17.74,0,0,1-4.09,1.48,19.15,19.15,0,0,1,3.89-1.95A17.74,17.74,0,0,1,205.07,171.76Z" style="fill:#fff"></path><path d="M226.61,160.22a15.28,15.28,0,0,1-2.61,1.25c-1.64.7-3.94,1.6-6.51,2.51s-4.92,1.62-6.64,2.1a14.3,14.3,0,0,1-2.82.65,17.85,17.85,0,0,1,2.71-1l6.58-2.25,6.55-2.35A15.91,15.91,0,0,1,226.61,160.22Z" style="fill:#fff"></path><path d="M178.1,208.78S172,217.92,176.22,227a10.12,10.12,0,0,0,5,4.93l.14.06h8.87a10.23,10.23,0,0,0,5.24-6.86c.94-4.4,1.31-11-2.8-16.15l-.38-1.29Z" style="fill:#fafafa"></path><path d="M178.1,208.78l.94-.09,2.8-.27c2.44-.24,6-.61,10.47-1h.17l0,.16.39,1.29,0-.07a16.69,16.69,0,0,1,3.48,9.89,25.36,25.36,0,0,1-.5,6,10.38,10.38,0,0,1-2.89,5.62,10.93,10.93,0,0,1-1.22,1c-.22.16-.44.31-.67.45l-.34.21-.17.09-.09.05,0,0h0l-.12,0h-8.93l-.05,0a10.58,10.58,0,0,1-4.35-3.51,9.69,9.69,0,0,1-1.22-2.34c-.14-.4-.33-.79-.44-1.19s-.21-.8-.31-1.19a18.28,18.28,0,0,1,.17-8.34,24.2,24.2,0,0,1,1.94-5.13c.3-.56.55-1,.72-1.27a2.36,2.36,0,0,1,.3-.41,3.1,3.1,0,0,1-.22.45c-.16.3-.38.73-.65,1.31a25.39,25.39,0,0,0-1.79,5.12,18.18,18.18,0,0,0-.06,8.18c.1.38.21.76.32,1.15s.29.76.43,1.15a9,9,0,0,0,1.19,2.24,10.12,10.12,0,0,0,4.18,3.33l-.1,0h8.87l-.12,0h0l0,0,.08,0,.16-.09.33-.2c.21-.13.42-.28.63-.43a10,10,0,0,0,3.92-6.35,25.49,25.49,0,0,0,.5-5.84,16.3,16.3,0,0,0-3.31-9.65l0,0v0c-.13-.45-.26-.9-.37-1.3l.21.15c-4.3.32-7.82.53-10.31.69Z" style="fill:#263238"></path><path d="M193.74,219.44c-.07-2.5-.63-5.16-2.43-6.91a9.27,9.27,0,0,0-4.67-2.18,8.62,8.62,0,0,0-5.08.22c-2.28,1-3.66,3.35-4.33,5.74a12.16,12.16,0,0,0,.48,8.51,8,8,0,0,0,6.84,4.64l2-.16a6.24,6.24,0,0,0,5.73-3.18A12.2,12.2,0,0,0,193.74,219.44Z" style="fill:#4CE779"></path><g style="opacity:0.8"><path d="M193.74,219.44c-.07-2.5-.63-5.16-2.43-6.91a9.27,9.27,0,0,0-4.67-2.18,8.62,8.62,0,0,0-5.08.22c-2.28,1-3.66,3.35-4.33,5.74a12.16,12.16,0,0,0,.48,8.51,8,8,0,0,0,6.84,4.64l2-.16a6.24,6.24,0,0,0,5.73-3.18A12.2,12.2,0,0,0,193.74,219.44Z" style="fill:#fff"></path></g><path d="M193.74,219.44c-.07-2.5-.63-5.16-2.43-6.91a9.27,9.27,0,0,0-4.67-2.18,8.62,8.62,0,0,0-5.08.22c-2.28,1-3.66,3.35-4.33,5.74a12.16,12.16,0,0,0,.48,8.51,8,8,0,0,0,6.84,4.64l2-.16a6.24,6.24,0,0,0,5.73-3.18A12.2,12.2,0,0,0,193.74,219.44Z" style="fill:#4CE779"></path><g style="opacity:0.7000000000000001"><path d="M193.74,219.44c-.07-2.5-.63-5.16-2.43-6.91a9.27,9.27,0,0,0-4.67-2.18,8.62,8.62,0,0,0-5.08.22c-2.28,1-3.66,3.35-4.33,5.74a12.16,12.16,0,0,0,.48,8.51,8,8,0,0,0,6.84,4.64l2-.16a6.24,6.24,0,0,0,5.73-3.18A12.2,12.2,0,0,0,193.74,219.44Z" style="fill:#fff"></path></g><path d="M184.57,228.69h0Z" style="fill:#4CE779"></path><path d="M190.17,221.07a8.71,8.71,0,0,0-2.64-5.63,3.1,3.1,0,0,0-1.17-.8,1.36,1.36,0,0,0-1.35.2,1.71,1.71,0,0,0-.34,1.68,10.59,10.59,0,0,1,.45,1.74,4.26,4.26,0,0,1-1.72,3.13,6.41,6.41,0,0,0-2.2,2.9,3.31,3.31,0,0,0,.85,2.93,4.33,4.33,0,0,0,2.5,1.47,5.8,5.8,0,0,0,3.53-1.8A7.7,7.7,0,0,0,190.17,221.07Z" style="fill:#4CE779"></path><g style="opacity:0.4"><path d="M184.57,228.69h0Z" style="fill:#fff"></path><path d="M190.17,221.07a8.71,8.71,0,0,0-2.64-5.63,3.1,3.1,0,0,0-1.17-.8,1.36,1.36,0,0,0-1.35.2,1.71,1.71,0,0,0-.34,1.68,10.59,10.59,0,0,1,.45,1.74,4.26,4.26,0,0,1-1.72,3.13,6.41,6.41,0,0,0-2.2,2.9,3.31,3.31,0,0,0,.85,2.93,4.33,4.33,0,0,0,2.5,1.47,5.8,5.8,0,0,0,3.53-1.8A7.7,7.7,0,0,0,190.17,221.07Z" style="fill:#fff"></path></g><path d="M185,228.47a3.16,3.16,0,0,1-1.77-2.44,2.4,2.4,0,0,1,.28-1.49,7.5,7.5,0,0,1,1.54-1.43,3.81,3.81,0,0,0,1.16-2.27,1.34,1.34,0,0,1,.1-.44.35.35,0,0,1,.35-.23c.16,0,.27.17.35.31a6.57,6.57,0,0,1,.8,2,4.2,4.2,0,0,1-.12,2.17c-.51,1.45-1.89,2.41-2.64,3.75" style="fill:#4CE779"></path><path d="M182.31,212.54c0,.07-.66.47-1.56,1.37a9.42,9.42,0,0,0-2.47,4.2,9.56,9.56,0,0,0,0,4.87c.33,1.23.74,1.92.66,2a4.58,4.58,0,0,1-1-1.86,8.89,8.89,0,0,1-.18-5.12,8.78,8.78,0,0,1,2.73-4.33A4.37,4.37,0,0,1,182.31,212.54Z" style="fill:#4CE779"></path><path d="M184.19,211.48c.05.14-.11.32-.36.42s-.5.07-.55-.07.11-.32.36-.42S184.13,211.35,184.19,211.48Z" style="fill:#4CE779"></path><path d="M185.31,240.24c-2.5,0-5.15-.05-7.49-.19a7.63,7.63,0,0,1-5.69-2.48,6.85,6.85,0,0,1-1.46-4.81c0-.66,1.41-19.74,2-27.78.21-3,1.19-5.18,2.92-6.47a7,7,0,0,1,5.22-1.1l9.26-.12c6.17-.22,8.16,3.53,8.34,5.56.16,1.28,3.21,25.73,2.65,30.52-.63,5.33-5.94,6.61-6.16,6.66l-.17,0C194.62,240.05,190.26,240.24,185.31,240.24Zm-5.83-41.09a4.73,4.73,0,0,0-2.85.87c-1.26.94-2,2.65-2.16,5.08-.55,8.15-1.94,27.61-1.95,27.8v0a5.1,5.1,0,0,0,1.06,3.45,5.92,5.92,0,0,0,4.36,1.8c6.5.39,15.56,0,16.58,0,.58-.15,4.21-1.27,4.66-5,.54-4.58-2.62-29.84-2.66-30.09v0a4.12,4.12,0,0,0-.94-2c-1.11-1.32-3-1.94-5.5-1.85l-9.5.11-.11,0A4.44,4.44,0,0,0,179.48,199.15Z" style="fill:#263238"></path><path d="M176.31,191.71h19.21L188.21,188a5.62,5.62,0,0,0-2.51-.6h0a5.54,5.54,0,0,0-2.64.67Z" style="fill:#455a64"></path><rect x="179.5" y="190.94" width="12.83" height="15.99" style="fill:#455a64"></rect><rect x="177.4" y="206.34" width="16.6" height="2.58" rx="1.17" style="fill:#455a64"></rect><path d="M174.18,201.91a5.59,5.59,0,0,1,0-1.28c0-.92.05-2.08.08-3.46.09-2.92.26-6.95.47-11.41.06-1.12.08-2.19.19-3.26a10.6,10.6,0,0,1,.78-3,10.41,10.41,0,0,1,3.16-4.11,9.89,9.89,0,0,1,3.08-1.65,6.71,6.71,0,0,1,.92-.23c.21,0,.33-.06.33,0a9.64,9.64,0,0,1-1.18.46,10.91,10.91,0,0,0-2.92,1.74,10.38,10.38,0,0,0-3,4,10.53,10.53,0,0,0-.72,2.86c-.09,1-.11,2.13-.17,3.24-.21,4.45-.43,8.48-.62,11.4-.1,1.38-.18,2.53-.25,3.45A5.81,5.81,0,0,1,174.18,201.91Z" style="fill:#263238"></path><path d="M189.49,174a.87.87,0,0,1,.3.08,5.1,5.1,0,0,1,.82.37,9.75,9.75,0,0,1,2.65,2,10.56,10.56,0,0,1,2.46,4.25,12.21,12.21,0,0,1,.44,2.88c.07,1,.14,2,.21,3.07.28,4.21.51,8,.65,10.78,0,1.3.1,2.39.13,3.27a5.21,5.21,0,0,1,0,1.21,5.68,5.68,0,0,1-.18-1.19c-.08-.88-.18-2-.3-3.26-.23-2.76-.52-6.57-.8-10.78-.07-1.05-.13-2.08-.2-3.07a11.65,11.65,0,0,0-.4-2.78A10.5,10.5,0,0,0,193,176.7,14.44,14.44,0,0,0,189.49,174Z" style="fill:#263238"></path><path d="M176.52,229s2.42,2.72,4.41,3.33h9.42a9.34,9.34,0,0,0,4.59-3Z" style="fill:#455a64"></path><path d="M182.44,234.34h6.17A6.69,6.69,0,0,1,195.3,241v.7a0,0,0,0,1,0,0H175.75a0,0,0,0,1,0,0V241A6.69,6.69,0,0,1,182.44,234.34Z" style="fill:#455a64"></path><rect x="180.42" y="230.63" width="10.05" height="5.26" style="fill:#455a64"></rect><rect x="171.13" y="241.22" width="28.44" height="2.61" rx="1.18" style="fill:#455a64"></rect><path d="M193,206.35a51.55,51.55,0,0,1-7.26.26,51.34,51.34,0,0,1-7.25-.26,48.7,48.7,0,0,1,7.25-.27A48.89,48.89,0,0,1,193,206.35Z" style="fill:#263238"></path><path d="M195.28,191.77a82.56,82.56,0,0,1-9.44.27,82.41,82.41,0,0,1-9.44-.27,86.9,86.9,0,0,1,9.44-.26A87.05,87.05,0,0,1,195.28,191.77Z" style="fill:#263238"></path><path d="M190.59,232.15a24.64,24.64,0,0,1-5,.26,24.64,24.64,0,0,1-5-.26,24.64,24.64,0,0,1,5-.26A24.64,24.64,0,0,1,190.59,232.15Z" style="fill:#263238"></path><path d="M190,234.41a23,23,0,0,1-4.84.26,22.92,22.92,0,0,1-4.83-.26,22.92,22.92,0,0,1,4.83-.26A23,23,0,0,1,190,234.41Z" style="fill:#263238"></path><path d="M197.25,241.36c0,.15-4.84.26-10.8.26s-10.81-.11-10.81-.26,4.84-.26,10.81-.26S197.25,241.22,197.25,241.36Z" style="fill:#263238"></path><path d="M186.78,236c0,.14-.83.29-1.88.32s-1.89-.06-1.89-.2.83-.29,1.88-.32S186.78,235.81,186.78,236Z" style="fill:#fff"></path><path d="M187.57,207.94c0,.14-.76.28-1.7.32s-1.7-.06-1.7-.21.75-.28,1.69-.31S187.56,207.79,187.57,207.94Z" style="fill:#fff"></path><path d="M188.17,190.94a17,17,0,0,1-5.92.38,9,9,0,0,1,2.95-.45A8.9,8.9,0,0,1,188.17,190.94Z" style="fill:#fff"></path><path d="M172.59,221.32a18.05,18.05,0,0,1-.05-4.24,17.85,17.85,0,0,1,.47-4.21,16.81,16.81,0,0,1,.05,4.24A16.78,16.78,0,0,1,172.59,221.32Z" style="fill:#fff"></path><path d="M199.48,220.54a31,31,0,0,1-1.24-6.38,30.76,30.76,0,0,1-.38-6.49,59,59,0,0,1,.9,6.42A59.58,59.58,0,0,1,199.48,220.54Z" style="fill:#fff"></path><polygon points="191.78 227.19 191.06 239.63 190.48 227.19 179.65 226.61 190.46 226.04 191.11 213.78 191.63 226.05 205.52 226.66 191.78 227.19" style="fill:#fff"></polygon><polygon points="190.1 226.41 187.29 221.9 190.79 225.93 190.1 226.41" style="fill:#fff"></polygon><polygon points="191.1 226.1 194.87 222.4 191.7 226.71 191.1 226.1" style="fill:#fff"></polygon><polygon points="191.78 227 194.58 231.51 191.08 227.48 191.78 227" style="fill:#fff"></polygon><polygon points="190.77 227.31 187.01 231.01 190.17 226.71 190.77 227.31" style="fill:#fff"></polygon><path d="M202.7,117.47a18.73,18.73,0,0,1-2.72-.8c-1.67-.54-4-1.23-6.57-1.88s-5-1.1-6.68-1.41a19.88,19.88,0,0,1-2.78-.56,13.07,13.07,0,0,1,2.84.19,59.85,59.85,0,0,1,6.75,1.28,58.83,58.83,0,0,1,6.56,2A13,13,0,0,1,202.7,117.47Z" style="fill:#fff"></path></g><g id="freepik--Floor--inject-91"><path d="M474.08,483.49c0,.15-100.33.26-224.07.26s-224.09-.11-224.09-.26,100.31-.26,224.09-.26S474.08,483.35,474.08,483.49Z" style="fill:#263238"></path></g></svg>